<ttFont>
<head>
    <!-- Most of this table will be recalculated by the compiler -->
    <tableVersion value="1.0"/>
    <fontRevision value="2.02"/>
    <checkSumAdjustment value="0xa2f07d9e"/>
    <magicNumber value="0x5f0f3cf5"/>
    <flags value="00000000 00000011"/>
    <unitsPerEm value="1000"/>
    <created value="Thu Mar 16 05:26:39 2017"/>
    <modified value="Thu Mar 16 05:26:39 2017"/>
    <xMin value="-160"/>
    <yMin value="-220"/>
    <xMax value="550"/>
    <yMax value="734"/>
    <macStyle value="00000000 00000000"/>
    <lowestRecPPEM value="6"/>
    <fontDirectionHint value="2"/>
    <indexToLocFormat value="0"/>
    <glyphDataFormat value="0"/>
  </head>
          <CharString index="0">
            rmoveto
            18 0 14 14 0 18 rrcurveto
            0 18 -14 14 -18 0 rrcurveto
            -18 0 -14 -14 0 -18 rrcurveto
            0 -18 14 -14 18 0 rrcurveto
            return
          </CharString>
          <CharString index="1">
            rmoveto
            64 0 60 36 50 40 rrcurveto
            2 0 rlineto
            4 -64 rlineto
            26 0 rlineto
            0 310 rlineto
            0 96 -34 84 -112 0 rrcurveto
            -78 0 -66 -40 -30 -22 rrcurveto
            16 -24 rlineto
            30 24 58 34 68 0 rrcurveto
            100 0 20 -86 -2 -78 rrcurveto
            -216 -24 -98 -50 0 -107 rrcurveto
            0 -91 64 -38 74 0 rrcurveto
            2 28 rmoveto
            -58 0 -50 28 0 74 rrcurveto
            0 82 72 48 210 24 rrcurveto
            0 -174 rlineto
            -64 -54 -52 -28 -58 0 rrcurveto
            endchar
          </CharString>
          <CharString index="2">
            -40 22 -58 0 rrcurveto
            -116 0 -98 -98 0 -154 rrcurveto
            0 -162 78 -88 120 0 rrcurveto
            2 28 rmoveto
            -108 0 -60 90 0 132 rrcurveto
            0 124 78 100 102 0 rrcurveto
            50 0 44 -18 54 -48 rrcurveto
            0 -296 rlineto
            -54 -54 -50 -30 -56 0 rrcurveto
            endchar
          </CharString>
          <CharString index="3">
            0 rlineto
            0 114 rlineto
            0 72 24 42 54 0 rrcurveto
            18 0 20 -4 20 -10 rrcurveto
            10 26 rlineto
            -22 10 -24 6 -20 0 rrcurveto
            -68 0 -42 -44 0 -94 rrcurveto
            0 -118 rlineto
            -66 -4 rlineto
            0 -24 rlineto
            66 0 rlineto
            0 -450 rlineto
            30 0 rlineto
            0 450 rlineto
            return
          </CharString>
          <CharString index="4">
            580 rmoveto
            63 0 16 66 4 56 rrcurveto
            -26 2 rlineto
            -2 -52 -16 -46 -37 0 rrcurveto
            -59 0 -20 100 -76 0 rrcurveto
            -64 0 -16 -65 -4 -57 rrcurveto
            26 -2 rlineto
            2 54 16 44 38 0 rrcurveto
            58 0 20 -100 77 0 rrcurveto
            return
          </CharString>
          <CharString index="5">
            -10 26 rlineto
            -18 -8 -26 -8 -18 0 rrcurveto
            -70 0 -14 44 0 62 rrcurveto
            0 328 rlineto
            142 0 rlineto
            0 28 rlineto
            -142 0 rlineto
            0 140 rlineto
            -26 0 rlineto
            -4 -140 rlineto
            return
          </CharString>
          <CharString index="6">
            540 252 -12 rmoveto
            66 0 54 36 40 40 rrcurveto
            2 0 rlineto
            4 -64 rlineto
            26 0 rlineto
            0 return
          </CharString>
          <CharString index="7">
            0 21 rrcurveto
            0 20 -13 11 -18 0 rrcurveto
            -16 0 -13 -11 0 -20 rrcurveto
            0 -21 13 return
          </CharString>
        <CharString name=".notdef">
          624 96 0 rmoveto
          432 0 rlineto
          0 660 rlineto
          -432 0 rlineto
          214 -294 rmoveto
          -56 92 rlineto
          -94 168 rlineto
          302 0 rlineto
          -94 -168 rlineto
          -54 -92 rlineto
          -180 -292 rmoveto
          0 536 rlineto
          154 -270 rlineto
          200 -266 rmoveto
          -152 266 rlineto
          152 270 rlineto
          -344 -578 rmoveto
          102 176 rlineto
          64 106 rlineto
          4 0 rlineto
          62 -106 rlineto
          100 -176 rlineto
          endchar
        </CharString>
        <CharString name="A">
          520 476 0 rmoveto
          34 0 rlineto
          -236 660 rlineto
          -28 0 rlineto
          -236 -660 rlineto
          32 0 rlineto
          83 236 rlineto
          269 0 rlineto
          -212 160 rmoveto
          28 80 24 68 24 82 rrcurveto
          4 0 rlineto
          24 -82 24 -68 28 -80 rrcurveto
          46 -132 rlineto
          -249 0 rlineto
          endchar
        </CharString>
        <CharString name="A.sc">
          444 400 0 rmoveto
          34 0 rlineto
          -198 510 rlineto
          -29 0 rlineto
          -197 -510 rlineto
          32 0 rlineto
          67 176 rlineto
          225 0 rlineto
          -176 128 rmoveto
          23 62 18 48 21 61 rrcurveto
          4 0 rlineto
          21 -60 18 -48 23 -63 rrcurveto
          38 -100 rlineto
          -204 0 rlineto
          endchar
        </CharString>
        <CharString name="a">
          486 198 -12 -106 callsubr
        </CharString>
        <CharString name="a.alt">
          -101 callsubr
          478 rlineto
          -28 0 rlineto
          -2 -46 rlineto
          -2 0 rlineto
          -46 36 -105 callsubr
        </CharString>
        <CharString name="ampersand">
          562 550 16 rmoveto
          -39 15 -44 27 -47 39 rrcurveto
          53 67 39 86 26 92 rrcurveto
          -30 0 rlineto
          -24 -88 -35 -77 -50 -62 rrcurveto
          -70 64 -72 88 -47 90 rrcurveto
          76 58 78 57 0 84 rrcurveto
          0 66 -36 50 -68 0 rrcurveto
          -76 0 -54 -60 0 -84 rrcurveto
          0 -52 17 -57 28 -57 rrcurveto
          -70 -53 -67 -58 0 -85 rrcurveto
          0 -110 86 -68 100 0 rrcurveto
          73 0 56 35 48 51 rrcurveto
          51 -43 46 -28 40 -15 rrcurveto
          -378 542 rmoveto
          0 62 36 52 62 0 rrcurveto
          56 0 20 -46 0 -44 rrcurveto
          0 -72 -66 -50 -69 -52 rrcurveto
          -24 52 -15 51 0 47 rrcurveto
          -90 -362 rmoveto
          0 71 54 51 63 49 rrcurveto
          48 -91 73 -88 72 -67 rrcurveto
          -43 -45 -53 -32 -58 0 rrcurveto
          -84 0 -72 60 0 92 rrcurveto
          endchar
        </CharString>
        <CharString name="atilde">
          486 319 -103 callsubr
          -121 -592 -106 callsubr
        </CharString>
        <CharString name="d">
          -101 callsubr
          722 rlineto
          -30 0 rlineto
          0 -202 rlineto
          2 -90 rlineto
          -50 38 -105 callsubr
        </CharString>
        <CharString name="f">
          252 244 450 rmoveto
          0 28 rlineto
          -114 -104 callsubr
          endchar
        </CharString>
        <CharString name="f_t">
          518 508 6 rmoveto
          -102 callsubr
          -192 -104 callsubr
          192 0 rlineto
          0 -324 rlineto
          0 -82 24 -56 88 0 rrcurveto
          16 0 30 8 28 10 rrcurveto
          endchar
        </CharString>
        <CharString name="n">
          526 96 0 rmoveto
          30 0 rlineto
          0 366 rlineto
          62 64 44 32 60 0 rrcurveto
          82 0 34 -52 0 -106 rrcurveto
          0 -304 rlineto
          30 0 rlineto
          0 308 rlineto
          0 124 -46 58 -98 0 rrcurveto
          -66 0 -50 -38 -50 -50 rrcurveto
          -2 0 rlineto
          -4 76 rlineto
          -26 0 rlineto
          endchar
        </CharString>
        <CharString name="space">
          200 endchar
        </CharString>
        <CharString name="t">
          302 218 -12 rmoveto
          16 0 30 8 28 10 rrcurveto
          -102 callsubr
          -76 -4 rlineto
          0 -24 rlineto
          76 0 rlineto
          0 -324 rlineto
          0 -82 24 -56 88 0 rrcurveto
          endchar
        </CharString>
        <CharString name="uni0303">
          0 77 -103 callsubr
          endchar
        </CharString>
        <CharString name="uni0308">
          0 -86 602 -107 callsubr
          172 0 -107 callsubr
          endchar
        </CharString>
        <CharString name="uni0324">
          0 -86 -188 -107 callsubr
          172 0 -107 callsubr
          endchar
        </CharString>
        <CharString name="uni0330">
          0 77 -220 rmoveto
          63 0 16 66 4 56 rrcurveto
          -26 2 rlineto
          -2 -52 -16 -46 -37 0 rrcurveto
          -59 0 -20 100 -76 0 rrcurveto
          -64 0 -16 -65 -4 -57 rrcurveto
          26 -2 rlineto
          2 54 16 44 38 0 rrcurveto
          58 0 20 -100 77 0 rrcurveto
          endchar
        </CharString>
        <CharString name="uni25CC">
          592 295 426 rmoveto
          18 0 13 12 0 20 rrcurveto
          0 20 -13 12 -18 0 rrcurveto
          -16 0 -13 -12 0 -20 rrcurveto
          0 -20 13 -12 16 0 rrcurveto
          -106 -26 rmoveto
          18 0 12 12 0 19 rrcurveto
          0 22 -13 10 -17 0 rrcurveto
          -16 0 -13 -10 0 -22 rrcurveto
          0 -19 13 -12 16 0 rrcurveto
          212 -1 rmoveto
          19 0 11 13 0 19 rrcurveto
          0 21 -13 10 -17 0 rrcurveto
          -15 0 -13 -10 0 -21 rrcurveto
          0 -19 13 -13 15 0 rrcurveto
          -291 -81 rmoveto
          19 0 12 12 -100 callsubr
          -12 16 0 rrcurveto
          370 -1 rmoveto
          19 0 11 12 0 20 rrcurveto
          0 20 -13 11 -17 0 rrcurveto
          -15 0 -14 -11 0 -20 rrcurveto
          0 -20 14 -12 15 0 rrcurveto
          -398 -110 rmoveto
          19 0 13 12 0 20 rrcurveto
          0 21 -13 10 -19 0 rrcurveto
          -15 0 -13 -10 0 -21 rrcurveto
          0 -20 13 -12 15 0 rrcurveto
          426 0 rmoveto
          18 0 12 12 0 20 rrcurveto
          0 21 -15 10 -15 0 rrcurveto
          -17 0 -13 -10 0 -21 rrcurveto
          0 -20 13 -12 17 0 rrcurveto
          -398 -110 rmoveto
          19 0 12 13 0 19 rrcurveto
          0 21 -13 11 -18 0 rrcurveto
          -16 0 -13 -11 0 -21 rrcurveto
          0 -19 13 -13 16 0 rrcurveto
          370 0 rmoveto
          19 0 11 13 0 19 rrcurveto
          0 21 -13 11 -17 0 rrcurveto
          -15 0 -14 -11 0 -21 rrcurveto
          0 -19 14 -13 15 0 rrcurveto
          -291 -82 rmoveto
          18 0 12 12 0 22 rrcurveto
          0 19 -13 10 -17 0 rrcurveto
          -16 0 -13 -10 0 -19 rrcurveto
          0 -22 13 -12 16 0 rrcurveto
          212 0 rmoveto
          19 0 11 12 0 22 rrcurveto
          0 19 -13 10 -17 0 rrcurveto
          -15 0 -13 -10 0 -19 rrcurveto
          0 -22 13 -12 15 0 rrcurveto
          -106 -27 rmoveto
          18 0 13 11 -100 callsubr
          -11 16 0 rrcurveto
          endchar
        </CharString>
</ttFont>
